<svg xmlns="http://www.w3.org/2000/svg" viewBox="0 0 1200 630" width="1200" height="630">
  <defs>
    <linearGradient id="bg" x1="0" y1="0" x2="1" y2="1">
      <stop offset="0" stop-color="#f6f2ec"/>
      <stop offset="1" stop-color="#ecdfce"/>
    </linearGradient>
  </defs>
  <rect width="1200" height="630" fill="url(#bg)"/>
  <rect x="72" y="70" width="60" height="60" rx="14" fill="#9c5f3b"/>
  <path d="M89 116V86h13.5c5.8 0 9.4 2.8 9.4 7.7 0 3.4-1.9 5.6-4.9 6.6 3.6.8 5.8 3.4 5.8 7.1 0 5.3-3.8 8.6-10.1 8.6H89Zm6-17.8h6.4c2.6 0 4.3-1.3 4.3-3.6s-1.7-3.6-4.3-3.6H95v7.2Zm0 12.8h6.8c2.8 0 4.5-1.3 4.5-3.8s-1.7-3.8-4.7-3.8H95v7.6Z" fill="#fff"/>
  <text x="152" y="118" font-family="Georgia, serif" font-size="40" font-weight="600" fill="#1c1b19">Brouwers<tspan fill="#9c5f3b">Mode</tspan></text>
  <text x="72" y="300" font-family="Georgia, serif" font-size="82" font-weight="600" fill="#1c1b19">Mode die klopt,</text>
  <text x="72" y="392" font-family="Georgia, serif" font-size="82" font-weight="600" fill="#1c1b19">van webshops die</text>
  <text x="72" y="484" font-family="Georgia, serif" font-size="82" font-weight="600" fill="#9c5f3b">het waarmaken</text>
  <text x="72" y="560" font-family="Arial, sans-serif" font-size="30" fill="#6b665f">De onafhankelijke Nederlandse modegids</text>
</svg>
